# xmcd CD database file
#
# Track frame offsets:
#	150
#	18651
#	36621
#	58243
#	79285
#	101099
#	119204
#	140050
#	163471
#	181539
#	207225
#
# Disc length: 3048 seconds
#
# Revision: 1
# Processed by: cddbd v1.5.1PL0 Copyright (c) Steve Scherf et al.
# Submitted via: CDex 1.51
#
DISCID=ae0be60b
DTITLE=?????? - SCREEN
DYEAR=1900
DGENRE=Pop
TTITLE0=Silent movie
TTITLE1=????
TTITLE2=Dream of reunion
TTITLE3=??????
TTITLE4=??
TTITLE5=GATE
TTITLE6=????????
TTITLE7=???????
TTITLE8=MONSTER
TTITLE9=?????????
TTITLE10=Believe
EXTD=
EXTT0=
EXTT1=
EXTT2=
EXTT3=
EXTT4=
EXTT5=
EXTT6=
EXTT7=
EXTT8=
EXTT9=
EXTT10=
PLAYORDER=
